<svg width="334" height="334" viewBox="0 0 334 334" fill="none" xmlns="http://www.w3.org/2000/svg">
<path d="M0 0H334V334H0V0Z" fill="#2B2B35"/>
<circle cx="299.5" cy="167.5" r="13.5" fill="#D93A31"/>
<path d="M302.242 168.354C302.437 168.158 302.437 167.842 302.242 167.646L299.06 164.464C298.864 164.269 298.548 164.269 298.353 164.464C298.157 164.66 298.157 164.976 298.353 165.172L301.181 168L298.353 170.828C298.157 171.024 298.157 171.34 298.353 171.536C298.548 171.731 298.864 171.731 299.06 171.536L302.242 168.354ZM258 168.5H301.888V167.5H258V168.5Z" fill="white"/>
<path d="M28.6464 168.354C28.4512 168.158 28.4512 167.842 28.6464 167.646L31.8284 164.464C32.0237 164.269 32.3403 164.269 32.5355 164.464C32.7308 164.66 32.7308 164.976 32.5355 165.172L29.7071 168L32.5355 170.828C32.7308 171.024 32.7308 171.34 32.5355 171.536C32.3403 171.731 32.0237 171.731 31.8284 171.536L28.6464 168.354ZM72.8884 168.5H29V167.5H72.8884V168.5Z" fill="white"/>
</svg>
